# xmcd
#
# Track frame offsets: 
#        150
#        14028
#        27836
#        42613
#        59828
#        79160
#        96610
#        114726
#        134123
#        153479
#        169837
#        191846
#
# Disc length: 2791 seconds
#
# Revision: 0
# Processed by: cddbd v1.5.2PL0 Copyright (c) Steve Scherf et al.
# Submitted via: ExactAudioCopy v0.95b4
#
DISCID=bb0ae50c
DTITLE=Ferne and de fyra sista - Musik för frånskilda
DYEAR=2006
DGENRE=Folk
TTITLE0=Ingen som gör sig till
TTITLE1=En gåta
TTITLE2=Vi älskade varann
TTITLE3=Lämna det som var
TTITLE4=Dryck av ljus
TTITLE5=Världen och jag
TTITLE6=Röda löv
TTITLE7=Du var en annan
TTITLE8=Om du vill gå
TTITLE9=I sanningens namn
TTITLE10=Redan mer försent
TTITLE11=Efter full orkan
EXTD=
EXTT0=
EXTT1=
EXTT2=
EXTT3=
EXTT4=
EXTT5=
EXTT6=
EXTT7=
EXTT8=
EXTT9=
EXTT10=
EXTT11=
PLAYORDER=
